<svg width="125" height="35" viewBox="0 0 125 35" fill="none" xmlns="http://www.w3.org/2000/svg">
<g filter="url(#filter0_d_1_24)">
<rect width="120" height="31" rx="7" fill="white"/>
</g>
<path d="M0 7C0 3.13401 3.13401 0 7 0H31V31H7C3.13401 31 0 27.866 0 24V7Z" fill="#F1F1FF"/>
<path d="M37.2383 12V20H35.7891V12H37.2383ZM40.1592 16.4844V20H38.7451V14H40.0967V15.0195H40.167C40.305 14.6836 40.5251 14.4167 40.8271 14.2187C41.1318 14.0208 41.5081 13.9219 41.9561 13.9219C42.3701 13.9219 42.7308 14.0104 43.0381 14.1875C43.348 14.3646 43.5876 14.6211 43.7568 14.957C43.9287 15.293 44.0133 15.7005 44.0107 16.1797V20H42.5967V16.3984C42.5967 15.9974 42.4925 15.6836 42.2842 15.457C42.0785 15.2305 41.7933 15.1172 41.4287 15.1172C41.1813 15.1172 40.9613 15.1719 40.7686 15.2812C40.5785 15.388 40.4287 15.543 40.3193 15.7461C40.2126 15.9492 40.1592 16.1953 40.1592 16.4844ZM48.4443 14V15.0937H44.9951V14H48.4443ZM45.8467 12.5625H47.2607V18.1953C47.2607 18.3854 47.2894 18.5313 47.3467 18.6328C47.4066 18.7318 47.4847 18.7995 47.5811 18.8359C47.6774 18.8724 47.7842 18.8906 47.9014 18.8906C47.9899 18.8906 48.0706 18.8841 48.1436 18.8711C48.2191 18.8581 48.2764 18.8464 48.3154 18.8359L48.5537 19.9414C48.4782 19.9674 48.3701 19.9961 48.2295 20.0273C48.0915 20.0586 47.9222 20.0768 47.7217 20.082C47.3675 20.0924 47.0485 20.0391 46.7646 19.9219C46.4808 19.8021 46.2555 19.6172 46.0889 19.3672C45.9248 19.1172 45.8441 18.8047 45.8467 18.4297V12.5625ZM52.2187 20.1172C51.6172 20.1172 51.0977 19.9922 50.6602 19.7422C50.2253 19.4896 49.8906 19.1328 49.6563 18.6719C49.4219 18.2083 49.3047 17.6628 49.3047 17.0352C49.3047 16.418 49.4219 15.8763 49.6563 15.4102C49.8932 14.9414 50.224 14.5768 50.6484 14.3164C51.0729 14.0534 51.5716 13.9219 52.1445 13.9219C52.5143 13.9219 52.8633 13.9818 53.1914 14.1016C53.5221 14.2187 53.8138 14.401 54.0664 14.6484C54.3216 14.8958 54.5221 15.2109 54.668 15.5937C54.8138 15.974 54.8867 16.4271 54.8867 16.9531V17.3867H49.9688V16.4336H53.5313C53.5286 16.1628 53.4701 15.9219 53.3555 15.7109C53.2409 15.4974 53.0807 15.3294 52.875 15.207C52.6719 15.0846 52.4349 15.0234 52.1641 15.0234C51.875 15.0234 51.6211 15.0937 51.4023 15.2344C51.1836 15.3724 51.013 15.5547 50.8906 15.7812C50.7708 16.0052 50.7096 16.2513 50.707 16.5195V17.3516C50.707 17.7005 50.7708 18 50.8984 18.25C51.026 18.4974 51.2044 18.6875 51.4336 18.8203C51.6628 18.9505 51.931 19.0156 52.2383 19.0156C52.444 19.0156 52.6302 18.987 52.7969 18.9297C52.9635 18.8698 53.1081 18.7826 53.2305 18.668C53.3529 18.5534 53.4453 18.4115 53.5078 18.2422L54.8281 18.3906C54.7448 18.7396 54.5859 19.0443 54.3516 19.3047C54.1198 19.5625 53.8229 19.763 53.4609 19.9062C53.099 20.0469 52.6849 20.1172 52.2187 20.1172ZM58.6924 22.375C58.1846 22.375 57.7484 22.306 57.3838 22.168C57.0192 22.0326 56.7262 21.8503 56.5049 21.6211C56.2835 21.3919 56.1299 21.138 56.0439 20.8594L57.3174 20.5508C57.3747 20.668 57.458 20.7839 57.5674 20.8984C57.6768 21.0156 57.8239 21.112 58.0088 21.1875C58.1963 21.2656 58.432 21.3047 58.7158 21.3047C59.1169 21.3047 59.4489 21.207 59.7119 21.0117C59.9749 20.819 60.1064 20.5013 60.1064 20.0586V18.9219H60.0361C59.9632 19.0677 59.8564 19.2174 59.7158 19.3711C59.5778 19.5247 59.3942 19.6536 59.165 19.7578C58.9385 19.862 58.6533 19.9141 58.3096 19.9141C57.8486 19.9141 57.4307 19.806 57.0557 19.5898C56.6833 19.3711 56.3864 19.0456 56.165 18.6133C55.9463 18.1784 55.8369 17.6341 55.8369 16.9805C55.8369 16.3216 55.9463 15.7656 56.165 15.3125C56.3864 14.8568 56.6846 14.5117 57.0596 14.2773C57.4346 14.0404 57.8525 13.9219 58.3135 13.9219C58.665 13.9219 58.9541 13.9818 59.1807 14.1016C59.4098 14.2187 59.5921 14.3607 59.7275 14.5273C59.863 14.6914 59.9658 14.8464 60.0361 14.9922H60.1143V14H61.5088V20.0977C61.5088 20.6107 61.3864 21.0352 61.1416 21.3711C60.8968 21.707 60.5622 21.9583 60.1377 22.125C59.7132 22.2917 59.2314 22.375 58.6924 22.375ZM58.7041 18.8047C59.0036 18.8047 59.2588 18.7318 59.4697 18.5859C59.6807 18.4401 59.8408 18.2305 59.9502 17.957C60.0596 17.6836 60.1143 17.3555 60.1143 16.9727C60.1143 16.5951 60.0596 16.2643 59.9502 15.9805C59.8434 15.6966 59.6846 15.4766 59.4736 15.3203C59.2653 15.1615 59.0088 15.082 58.7041 15.082C58.389 15.082 58.126 15.1641 57.915 15.3281C57.7041 15.4922 57.5452 15.7174 57.4385 16.0039C57.3317 16.2878 57.2783 16.6107 57.2783 16.9727C57.2783 17.3398 57.3317 17.6615 57.4385 17.9375C57.5479 18.2109 57.708 18.4245 57.9189 18.5781C58.1325 18.7292 58.3942 18.8047 58.7041 18.8047ZM62.958 20V14H64.3291V15H64.3916C64.501 14.6536 64.6885 14.3867 64.9541 14.1992C65.2223 14.0091 65.5283 13.9141 65.8721 13.9141C65.9502 13.9141 66.0374 13.918 66.1338 13.9258C66.2327 13.931 66.3148 13.9401 66.3799 13.9531V15.2539C66.32 15.2331 66.2249 15.2148 66.0947 15.1992C65.9671 15.181 65.8434 15.1719 65.7236 15.1719C65.4658 15.1719 65.234 15.2279 65.0283 15.3398C64.8252 15.4492 64.665 15.6016 64.5479 15.7969C64.4307 15.9922 64.3721 16.2174 64.3721 16.4727V20H62.958ZM68.9385 20.1211C68.5583 20.1211 68.2158 20.0534 67.9111 19.918C67.609 19.7799 67.3695 19.5768 67.1924 19.3086C67.0179 19.0404 66.9307 18.7096 66.9307 18.3164C66.9307 17.9779 66.9932 17.6979 67.1182 17.4766C67.2432 17.2552 67.4137 17.0781 67.6299 16.9453C67.846 16.8125 68.0895 16.7122 68.3604 16.6445C68.6338 16.5742 68.9163 16.5234 69.208 16.4922C69.5596 16.4557 69.8447 16.4232 70.0635 16.3945C70.2822 16.3633 70.4411 16.3164 70.54 16.2539C70.6416 16.1888 70.6924 16.0885 70.6924 15.9531V15.9297C70.6924 15.6354 70.6051 15.4076 70.4307 15.2461C70.2562 15.0846 70.0049 15.0039 69.6768 15.0039C69.3304 15.0039 69.0557 15.0794 68.8525 15.2305C68.652 15.3815 68.5166 15.5599 68.4463 15.7656L67.126 15.5781C67.2301 15.2135 67.402 14.9089 67.6416 14.6641C67.8812 14.4167 68.1742 14.2318 68.5205 14.1094C68.8669 13.9844 69.2497 13.9219 69.6689 13.9219C69.958 13.9219 70.2458 13.9557 70.5322 14.0234C70.8187 14.0911 71.0804 14.2031 71.3174 14.3594C71.5544 14.513 71.7445 14.7227 71.8877 14.9883C72.0335 15.2539 72.1064 15.5859 72.1064 15.9844V20H70.7471V19.1758H70.7002C70.6143 19.3424 70.4932 19.4987 70.3369 19.6445C70.1833 19.7878 69.9893 19.9036 69.7549 19.9922C69.5231 20.0781 69.251 20.1211 68.9385 20.1211ZM69.3057 19.082C69.5895 19.082 69.8356 19.026 70.0439 18.9141C70.2523 18.7995 70.4124 18.6484 70.5244 18.4609C70.639 18.2734 70.6963 18.069 70.6963 17.8477V17.1406C70.652 17.1771 70.5765 17.2109 70.4697 17.2422C70.3656 17.2734 70.2484 17.3008 70.1182 17.3242C69.988 17.3477 69.859 17.3685 69.7314 17.3867C69.6038 17.4049 69.4932 17.4206 69.3994 17.4336C69.1885 17.4622 68.9997 17.5091 68.833 17.5742C68.6663 17.6393 68.5348 17.7305 68.4385 17.8477C68.3421 17.9622 68.2939 18.1107 68.2939 18.293C68.2939 18.5534 68.389 18.75 68.5791 18.8828C68.7692 19.0156 69.0114 19.082 69.3057 19.082ZM76.1455 20.1172C75.5465 20.1172 75.0322 19.9857 74.6025 19.7227C74.1755 19.4596 73.846 19.0964 73.6143 18.6328C73.3851 18.1667 73.2705 17.6302 73.2705 17.0234C73.2705 16.4141 73.3877 15.8763 73.6221 15.4102C73.8564 14.9414 74.1872 14.5768 74.6143 14.3164C75.0439 14.0534 75.5518 13.9219 76.1377 13.9219C76.6247 13.9219 77.0557 14.0117 77.4307 14.1914C77.8083 14.3685 78.109 14.6198 78.333 14.9453C78.557 15.2682 78.6846 15.6458 78.7158 16.0781H77.3643C77.3096 15.7891 77.1794 15.5482 76.9736 15.3555C76.7705 15.1602 76.4984 15.0625 76.1572 15.0625C75.8682 15.0625 75.6143 15.1406 75.3955 15.2969C75.1768 15.4505 75.0062 15.6719 74.8838 15.9609C74.764 16.25 74.7041 16.5964 74.7041 17C74.7041 17.4089 74.764 17.7604 74.8838 18.0547C75.0036 18.3464 75.1715 18.5716 75.3877 18.7305C75.6064 18.8867 75.863 18.9648 76.1572 18.9648C76.3656 18.9648 76.5518 18.9258 76.7158 18.8477C76.8825 18.7669 77.0218 18.651 77.1338 18.5C77.2458 18.349 77.3226 18.1654 77.3643 17.9492H78.7158C78.682 18.3737 78.557 18.75 78.3408 19.0781C78.1247 19.4036 77.8304 19.6589 77.458 19.8437C77.0856 20.026 76.6481 20.1172 76.1455 20.1172ZM79.877 20V14H81.291V20H79.877ZM80.5879 13.1484C80.3639 13.1484 80.1712 13.0742 80.0098 12.9258C79.8483 12.7747 79.7676 12.5937 79.7676 12.3828C79.7676 12.1693 79.8483 11.9883 80.0098 11.8398C80.1712 11.6888 80.3639 11.6133 80.5879 11.6133C80.8145 11.6133 81.0072 11.6888 81.166 11.8398C81.3275 11.9883 81.4082 12.1693 81.4082 12.3828C81.4082 12.5937 81.3275 12.7747 81.166 12.9258C81.0072 13.0742 80.8145 13.1484 80.5879 13.1484ZM85.3623 20.1172C84.7764 20.1172 84.2686 19.9883 83.8389 19.7305C83.4092 19.4727 83.0758 19.112 82.8389 18.6484C82.6045 18.1849 82.4873 17.6432 82.4873 17.0234C82.4873 16.4036 82.6045 15.8607 82.8389 15.3945C83.0758 14.9284 83.4092 14.5664 83.8389 14.3086C84.2686 14.0508 84.7764 13.9219 85.3623 13.9219C85.9482 13.9219 86.4561 14.0508 86.8857 14.3086C87.3154 14.5664 87.6475 14.9284 87.8818 15.3945C88.1188 15.8607 88.2373 16.4036 88.2373 17.0234C88.2373 17.6432 88.1188 18.1849 87.8818 18.6484C87.6475 19.112 87.3154 19.4727 86.8857 19.7305C86.4561 19.9883 85.9482 20.1172 85.3623 20.1172ZM85.3701 18.9844C85.6878 18.9844 85.9535 18.8971 86.167 18.7227C86.3805 18.5456 86.5394 18.3086 86.6436 18.0117C86.7503 17.7148 86.8037 17.3841 86.8037 17.0195C86.8037 16.6523 86.7503 16.3203 86.6436 16.0234C86.5394 15.724 86.3805 15.4857 86.167 15.3086C85.9535 15.1315 85.6878 15.043 85.3701 15.043C85.0446 15.043 84.7738 15.1315 84.5576 15.3086C84.3441 15.4857 84.1839 15.724 84.0771 16.0234C83.973 16.3203 83.9209 16.6523 83.9209 17.0195C83.9209 17.3841 83.973 17.7148 84.0771 18.0117C84.1839 18.3086 84.3441 18.5456 84.5576 18.7227C84.7738 18.8971 85.0446 18.9844 85.3701 18.9844ZM84.8193 13.2109L85.6943 11.4258H87.0771L85.8779 13.2109H84.8193ZM90.8516 16.4844V20H89.4375V14H90.7891V15.0195H90.8594C90.9974 14.6836 91.2174 14.4167 91.5195 14.2187C91.8242 14.0208 92.2005 13.9219 92.6484 13.9219C93.0625 13.9219 93.4232 14.0104 93.7305 14.1875C94.0404 14.3646 94.2799 14.6211 94.4492 14.957C94.6211 15.293 94.7057 15.7005 94.7031 16.1797V20H93.2891V16.3984C93.2891 15.9974 93.1849 15.6836 92.9766 15.457C92.7708 15.2305 92.4857 15.1172 92.1211 15.1172C91.8737 15.1172 91.6536 15.1719 91.4609 15.2812C91.2708 15.388 91.1211 15.543 91.0117 15.7461C90.9049 15.9492 90.8516 16.1953 90.8516 16.4844Z" fill="#4F52B2"/>
<path d="M24.125 16.75C24.0593 16.7992 23.9846 16.8351 23.9051 16.8554C23.8256 16.8758 23.7429 16.8803 23.6616 16.8687C23.5804 16.8571 23.5022 16.8296 23.4316 16.7878C23.3609 16.746 23.2992 16.6907 23.25 16.625C22.8733 16.1186 22.383 15.7078 21.8185 15.4256C21.254 15.1433 20.6311 14.9976 20 15C19.8771 15 19.7569 14.9637 19.6545 14.8958C19.5521 14.8278 19.472 14.7312 19.4242 14.618C19.3918 14.5411 19.3751 14.4585 19.3751 14.375C19.3751 14.2915 19.3918 14.2089 19.4242 14.132C19.472 14.0188 19.5521 13.9222 19.6545 13.8542C19.7569 13.7863 19.8771 13.75 20 13.75C20.3507 13.75 20.6943 13.6516 20.9919 13.466C21.2895 13.2805 21.529 13.0152 21.6834 12.7003C21.8378 12.3855 21.9007 12.0336 21.8652 11.6847C21.8296 11.3359 21.6969 11.004 21.4821 10.7267C21.2673 10.4495 20.9791 10.2381 20.6502 10.1164C20.3213 9.99478 19.9649 9.96781 19.6214 10.0386C19.278 10.1094 18.9612 10.275 18.7072 10.5168C18.4532 10.7586 18.272 11.0667 18.1844 11.4063C18.1639 11.4858 18.1279 11.5605 18.0785 11.6261C18.0291 11.6917 17.9673 11.7469 17.8966 11.7886C17.8258 11.8303 17.7476 11.8577 17.6663 11.8692C17.5849 11.8806 17.5022 11.876 17.4227 11.8555C17.3431 11.835 17.2685 11.799 17.2028 11.7496C17.1372 11.7002 17.082 11.6384 17.0403 11.5676C16.9986 11.4969 16.9712 11.4187 16.9597 11.3373C16.9483 11.256 16.9529 11.1733 16.9734 11.0938C17.0951 10.6229 17.325 10.187 17.6448 9.82059C17.9647 9.45422 18.3656 9.16756 18.8157 8.9834C19.2658 8.79924 19.7526 8.72267 20.2375 8.75979C20.7224 8.79691 21.192 8.94668 21.6088 9.1972C22.0256 9.44771 22.3782 9.79206 22.6386 10.2028C22.8989 10.6136 23.0598 11.0795 23.1084 11.5633C23.157 12.0472 23.092 12.5358 22.9186 12.9901C22.7451 13.4445 22.4681 13.8521 22.1094 14.1805C22.9592 14.5484 23.698 15.1324 24.2523 15.8742C24.3016 15.94 24.3374 16.0149 24.3576 16.0946C24.3779 16.1743 24.3822 16.2572 24.3704 16.3385C24.3585 16.4199 24.3308 16.4981 24.2887 16.5687C24.2466 16.6393 24.191 16.7009 24.125 16.75ZM19.9156 21.5625C19.9608 21.6336 19.9912 21.7132 20.0049 21.7964C20.0186 21.8795 20.0153 21.9646 19.9952 22.0465C19.9752 22.1284 19.9388 22.2053 19.8882 22.2728C19.8376 22.3402 19.7739 22.3967 19.701 22.4389C19.628 22.4811 19.5472 22.5081 19.4635 22.5182C19.3799 22.5284 19.295 22.5215 19.214 22.498C19.1331 22.4746 19.0577 22.4349 18.9925 22.3816C18.9272 22.3282 18.8734 22.2622 18.8344 22.1875C18.4407 21.5208 17.8799 20.9683 17.2075 20.5845C16.5351 20.2007 15.7742 19.9989 15 19.9989C14.2258 19.9989 13.4649 20.2007 12.7925 20.5845C12.1201 20.9683 11.5593 21.5208 11.1656 22.1875C11.1266 22.2622 11.0728 22.3282 11.0075 22.3816C10.9423 22.4349 10.8669 22.4746 10.786 22.498C10.705 22.5215 10.6201 22.5284 10.5365 22.5182C10.4528 22.5081 10.372 22.4811 10.299 22.4389C10.2261 22.3967 10.1624 22.3402 10.1118 22.2728C10.0612 22.2053 10.0248 22.1284 10.0048 22.0465C9.98471 21.9646 9.98143 21.8795 9.99511 21.7964C10.0088 21.7132 10.0392 21.6336 10.0844 21.5625C10.6903 20.5214 11.6142 19.7021 12.7203 19.225C12.0979 18.7485 11.6405 18.0889 11.4123 17.3389C11.1842 16.589 11.1968 15.7864 11.4484 15.044C11.6999 14.3016 12.1778 13.6567 12.8149 13.1999C13.452 12.7431 14.2161 12.4975 15 12.4975C15.7839 12.4975 16.5481 12.7431 17.1851 13.1999C17.8222 13.6567 18.3001 14.3016 18.5516 15.044C18.8032 15.7864 18.8158 16.589 18.5877 17.3389C18.3595 18.0889 17.9021 18.7485 17.2797 19.225C18.3858 19.7021 19.3097 20.5214 19.9156 21.5625ZM15 18.75C15.4945 18.75 15.9778 18.6034 16.3889 18.3287C16.8 18.054 17.1205 17.6635 17.3097 17.2067C17.4989 16.7499 17.5484 16.2472 17.452 15.7623C17.3555 15.2773 17.1174 14.8319 16.7678 14.4822C16.4181 14.1326 15.9727 13.8945 15.4877 13.798C15.0028 13.7016 14.5001 13.7511 14.0433 13.9403C13.5865 14.1295 13.196 14.45 12.9213 14.8611C12.6466 15.2722 12.5 15.7555 12.5 16.25C12.5 16.913 12.7634 17.5489 13.2322 18.0178C13.7011 18.4866 14.337 18.75 15 18.75ZM10.625 14.375C10.625 14.2092 10.5592 14.0503 10.4419 13.9331C10.3247 13.8158 10.1658 13.75 10 13.75C9.64932 13.75 9.30567 13.6516 9.0081 13.466C8.71053 13.2805 8.47095 13.0152 8.31659 12.7003C8.16222 12.3855 8.09926 12.0336 8.13484 11.6847C8.17043 11.3359 8.30314 11.004 8.5179 10.7267C8.73266 10.4495 9.02086 10.2381 9.34977 10.1164C9.67867 9.99478 10.0351 9.96781 10.3786 10.0386C10.722 10.1094 11.0388 10.275 11.2928 10.5168C11.5468 10.7586 11.728 11.0667 11.8156 11.4063C11.8571 11.5668 11.9606 11.7044 12.1034 11.7886C12.2463 11.8729 12.4168 11.8969 12.5773 11.8555C12.7379 11.814 12.8755 11.7105 12.9597 11.5676C13.044 11.4248 13.068 11.2543 13.0266 11.0938C12.9049 10.6229 12.675 10.187 12.3552 9.82059C12.0353 9.45422 11.6344 9.16756 11.1843 8.9834C10.7342 8.79924 10.2474 8.72267 9.76247 8.75979C9.27757 8.79691 8.80802 8.94668 8.39119 9.1972C7.97436 9.44771 7.62175 9.79206 7.36142 10.2028C7.10109 10.6136 6.94022 11.0795 6.89162 11.5633C6.84301 12.0472 6.90801 12.5358 7.08144 12.9901C7.25487 13.4445 7.53195 13.8521 7.89063 14.1805C7.04163 14.5488 6.30368 15.1327 5.75 15.8742C5.65044 16.0068 5.60764 16.1736 5.63101 16.3377C5.65437 16.5019 5.742 16.6501 5.87461 16.7496C6.00722 16.8492 6.17395 16.892 6.33811 16.8686C6.50228 16.8452 6.65044 16.7576 6.75 16.625C7.12671 16.1186 7.61704 15.7078 8.18153 15.4256C8.74602 15.1433 9.36889 14.9976 10 15C10.1658 15 10.3247 14.9342 10.4419 14.8169C10.5592 14.6997 10.625 14.5408 10.625 14.375Z" fill="#4F52B2"/>
<defs>
<filter id="filter0_d_1_24" x="0" y="0" width="125" height="35" filterUnits="userSpaceOnUse" color-interpolation-filters="sRGB">
<feFlood flood-opacity="0" result="BackgroundImageFix"/>
<feColorMatrix in="SourceAlpha" type="matrix" values="0 0 0 0 0 0 0 0 0 0 0 0 0 0 0 0 0 0 127 0" result="hardAlpha"/>
<feMorphology radius="2" operator="erode" in="SourceAlpha" result="effect1_dropShadow_1_24"/>
<feOffset dx="3" dy="2"/>
<feGaussianBlur stdDeviation="2"/>
<feComposite in2="hardAlpha" operator="out"/>
<feColorMatrix type="matrix" values="0 0 0 0 0 0 0 0 0 0 0 0 0 0 0 0 0 0 0.25 0"/>
<feBlend mode="normal" in2="BackgroundImageFix" result="effect1_dropShadow_1_24"/>
<feBlend mode="normal" in="SourceGraphic" in2="effect1_dropShadow_1_24" result="shape"/>
</filter>
</defs>
</svg>
